<svg xmlns="http://www.w3.org/2000/svg" viewBox="0 0 32 32" width="64" height="64" shape-rendering="crispEdges">
  <!-- 슬라임 (Slime) -->
  <g fill="#111111">
    <rect x="12" y="6"  width="4"  height="2"/><rect x="10" y="8"  width="2"  height="2"/>
    <rect x="16" y="8"  width="2"  height="2"/><rect x="8"  y="10" width="10" height="2"/>
    <rect x="6"  y="12" width="2"  height="8"/><rect x="18" y="12" width="2"  height="8"/>
    <rect x="8"  y="20" width="10" height="2"/><rect x="6"  y="22" width="14" height="2"/>
    <rect x="4"  y="22" width="2"  height="4"/><rect x="20" y="22" width="2"  height="4"/>
    <rect x="6"  y="24" width="4"  height="2"/><rect x="14" y="24" width="4"  height="2"/>
    <rect x="6"  y="26" width="4"  height="2"/><rect x="14" y="26" width="4"  height="2"/>
  </g>
  <g fill="#44BB44">
    <rect x="10" y="8"  width="8"  height="2"/><rect x="8"  y="10" width="10" height="10"/>
    <rect x="6"  y="12" width="2"  height="6"/><rect x="18" y="12" width="2"  height="6"/>
    <rect x="8"  y="20" width="10" height="2"/>
  </g>
  <g fill="#66DD66"><rect x="10" y="12" width="6" height="4"/></g>
  <g fill="#111111"><rect x="10" y="14" width="2" height="2"/><rect x="14" y="14" width="2" height="2"/></g>
  <g fill="#228822"><rect x="12" y="17" width="4" height="2"/></g>
</svg>