<svg xmlns="http://www.w3.org/2000/svg" viewBox="0 0 32 32" width="64" height="64" shape-rendering="crispEdges">
  <!-- 고블린 (Goblin) -->
  <g fill="#111111">
    <rect x="6"  y="2"  width="16" height="2"/><rect x="4"  y="4"  width="2"  height="10"/>
    <rect x="20" y="4"  width="2"  height="10"/><rect x="6"  y="14" width="16" height="2"/>
    <rect x="2"  y="4"  width="2"  height="4"/><rect x="22" y="4"  width="2"  height="4"/>
    <rect x="2"  y="8"  width="2"  height="4"/><rect x="22" y="8"  width="2"  height="4"/>
    <rect x="2"  y="6"  width="2"  height="2"/><rect x="24" y="6"  width="2"  height="2"/>
    <rect x="10" y="14" width="2"  height="10"/><rect x="16" y="14" width="2"  height="10"/>
    <rect x="10" y="14" width="8"  height="2"/><rect x="10" y="24" width="8"  height="2"/>
    <rect x="10" y="24" width="4"  height="6"/><rect x="16" y="24" width="4"  height="6"/>
  </g>
  <g fill="#66AA33">
    <rect x="6"  y="4"  width="16" height="10"/><rect x="4"  y="6"  width="2"  height="6"/>
    <rect x="20" y="6"  width="2"  height="6"/>
  </g>
  <g fill="#44881A">
    <rect x="4"  y="6"  width="2"  height="2"/><rect x="22" y="6"  width="2"  height="2"/>
  </g>
  <g fill="#99BB44">
    <rect x="12" y="16" width="4"  height="8"/>
  </g>
  <g fill="#BB1111">
    <rect x="8"  y="8"  width="2"  height="2"/><rect x="18" y="8"  width="2"  height="2"/>
  </g>
  <g fill="#EEEEBB">
    <rect x="10" y="10" width="8"  height="2"/>
  </g>
  <g fill="#66AA33">
    <rect x="12" y="26" width="2"  height="2"/><rect x="18" y="26" width="2"  height="2"/>
  </g>
</svg>