<svg xmlns="http://www.w3.org/2000/svg" viewBox="0 0 32 32" width="64" height="64" shape-rendering="crispEdges">
  <!-- 해룡 (Sea Turtle) -->
  <g fill="#111111">
    <rect x="6"  y="4"  width="16" height="2"/><rect x="4"  y="6"  width="2"  height="14"/>
    <rect x="20" y="6"  width="2"  height="14"/><rect x="6"  y="20" width="16" height="2"/>
    <rect x="2"  y="8"  width="2"  height="10"/><rect x="22" y="8"  width="2"  height="10"/>
    <rect x="2"  y="12" width="6"  height="2"/><rect x="2"  y="20" width="6"  height="2"/>
    <rect x="4"  y="20" width="4"  height="4"/><rect x="16" y="20" width="4"  height="4"/>
    <rect x="4"  y="22" width="4"  height="4"/><rect x="16" y="22" width="4"  height="4"/>
    <rect x="20" y="18" width="4"  height="2"/><rect x="22" y="20" width="2"  height="2"/>
  </g>
  <g fill="#224488">
    <rect x="6"  y="6"  width="16" height="14"/><rect x="4"  y="8"  width="2"  height="10"/>
    <rect x="20" y="8"  width="2"  height="10"/>
  </g>
  <g fill="#4466AA">
    <rect x="8"  y="6"  width="2"  height="14"/><rect x="14" y="6"  width="2"  height="14"/>
  </g>
  <g fill="#336688">
    <rect x="2"  y="14" width="6"  height="6"/><rect x="4"  y="22" width="2"  height="2"/>
    <rect x="16" y="22" width="2"  height="2"/>
  </g>
  <g fill="#DDBB00"><rect x="2" y="14" width="2" height="2"/></g>
</svg>