<svg xmlns="http://www.w3.org/2000/svg" viewBox="0 0 32 32" width="64" height="64" shape-rendering="crispEdges">
  <!-- 설여우 (Snow Fox) — front-face portrait -->
  <!-- Pointed ear tips -->
  <g fill="#88AABB">
    <rect x="8"  y="0"  width="2"  height="2"/>
    <rect x="22" y="0"  width="2"  height="2"/>
    <rect x="6"  y="2"  width="6"  height="2"/>
    <rect x="20" y="2"  width="6"  height="2"/>
    <rect x="4"  y="4"  width="26" height="2"/>
    <rect x="4"  y="14" width="26" height="2"/>
    <rect x="4"  y="6"  width="2"  height="8"/>
    <rect x="26" y="6"  width="2"  height="8"/>
    <rect x="14" y="12" width="4"  height="2"/>
  </g>
  <g fill="#DDEEFF">
    <rect x="8"  y="2"  width="2"  height="2"/>
    <rect x="22" y="2"  width="2"  height="2"/>
  </g>
  <!-- Pure white fur -->
  <g fill="#EEEEFF">
    <rect x="6"  y="4"  width="20" height="10"/>
    <rect x="8"  y="16" width="16" height="4"/>
  </g>
  <g fill="#FFFFFF">
    <rect x="10" y="10" width="12" height="4"/>
  </g>
  <!-- Ice-blue eyes -->
  <g fill="#AACCFF">
    <rect x="8"  y="8"  width="4"  height="4"/>
    <rect x="20" y="8"  width="4"  height="4"/>
  </g>
  <g fill="#6688BB">
    <rect x="10" y="10" width="2"  height="2"/>
    <rect x="22" y="10" width="2"  height="2"/>
  </g>
  <!-- Frost crystals -->
  <g fill="#FFFFFF">
    <rect x="6"  y="6"  width="2"  height="2"/>
    <rect x="24" y="6"  width="2"  height="2"/>
  </g>
</svg>
