<svg xmlns="http://www.w3.org/2000/svg" viewBox="0 0 32 32" width="64" height="64" shape-rendering="crispEdges">
  <!-- 구미호 (Nine-Tails Fox) — front-face portrait, golden -->
  <!-- Nine tails indicated by fan pattern at bottom -->
  <g fill="#AA8822">
    <rect x="8"  y="0"  width="2"  height="2"/>
    <rect x="22" y="0"  width="2"  height="2"/>
    <rect x="6"  y="2"  width="6"  height="2"/>
    <rect x="20" y="2"  width="6"  height="2"/>
    <rect x="4"  y="4"  width="26" height="2"/>
    <rect x="4"  y="14" width="26" height="2"/>
    <rect x="4"  y="6"  width="2"  height="8"/>
    <rect x="26" y="6"  width="2"  height="8"/>
    <rect x="14" y="12" width="4"  height="2"/>
  </g>
  <!-- Inner ear: warm gold -->
  <g fill="#FFDDAA">
    <rect x="8"  y="2"  width="2"  height="2"/>
    <rect x="22" y="2"  width="2"  height="2"/>
  </g>
  <!-- Golden fur -->
  <g fill="#CCAA44">
    <rect x="6"  y="4"  width="20" height="10"/>
    <rect x="8"  y="16" width="16" height="4"/>
  </g>
  <!-- White muzzle -->
  <g fill="#FFEECC">
    <rect x="10" y="10" width="12" height="4"/>
  </g>
  <!-- Magical golden eyes -->
  <g fill="#FFCC66">
    <rect x="8"  y="8"  width="4"  height="4"/>
    <rect x="20" y="8"  width="4"  height="4"/>
  </g>
  <g fill="#886600">
    <rect x="10" y="10" width="2"  height="2"/>
    <rect x="22" y="10" width="2"  height="2"/>
  </g>
  <!-- Nine tail fan at bottom -->
  <g fill="#DDBB55">
    <rect x="4"  y="20" width="4"  height="4"/>
    <rect x="10" y="22" width="4"  height="4"/>
    <rect x="16" y="20" width="4"  height="4"/>
    <rect x="22" y="22" width="4"  height="4"/>
  </g>
  <g fill="#FFEEAA">
    <rect x="6"  y="22" width="2"  height="2"/>
    <rect x="12" y="24" width="2"  height="2"/>
    <rect x="18" y="22" width="2"  height="2"/>
    <rect x="24" y="24" width="2"  height="2"/>
  </g>
</svg>
