<svg xmlns="http://www.w3.org/2000/svg" viewBox="0 0 32 32" width="64" height="64" shape-rendering="crispEdges">
  <!-- 덩굴 정령 (Vine) -->
  <g fill="#111111">
    <rect x="4"  y="2"  width="16" height="2"/><rect x="2"  y="4"  width="2"  height="8"/>
    <rect x="20" y="4"  width="2"  height="8"/><rect x="4"  y="12" width="16" height="2"/>
    <rect x="8"  y="12" width="2"  height="6"/><rect x="16" y="12" width="2"  height="6"/>
    <rect x="8"  y="18" width="10" height="2"/><rect x="10" y="18" width="2"  height="8"/>
    <rect x="14" y="18" width="2"  height="8"/><rect x="10" y="26" width="6"  height="2"/>
    <rect x="4"  y="24" width="4"  height="2"/><rect x="18" y="24" width="4"  height="2"/>
    <rect x="2"  y="26" width="6"  height="2"/><rect x="18" y="26" width="6"  height="2"/>
    <rect x="2"  y="28" width="6"  height="2"/><rect x="18" y="28" width="6"  height="2"/>
  </g>
  <g fill="#448833"><rect x="4" y="4" width="16" height="8"/></g>
  <g fill="#225511">
    <rect x="10" y="14" width="6"  height="4"/><rect x="12" y="20" width="2"  height="6"/>
  </g>
  <g fill="#334422">
    <rect x="4"  y="26" width="4"  height="2"/><rect x="18" y="26" width="4"  height="2"/>
  </g>
  <g fill="#00CC44"><rect x="9" y="6" width="2" height="2"/><rect x="15" y="6" width="2" height="2"/></g>
  <g fill="#22AA44"><rect x="11" y="8" width="4" height="2"/></g>
</svg>