<svg xmlns="http://www.w3.org/2000/svg" viewBox="0 0 32 32" width="64" height="64" shape-rendering="crispEdges">
  <!-- 전기 뱀장어 (Eel) -->
  <g fill="#111111">
    <rect x="22" y="6"  width="2"  height="18"/><rect x="24" y="4"  width="2"  height="22"/>
    <rect x="26" y="2"  width="2"  height="26"/><rect x="4"  y="10" width="18" height="2"/>
    <rect x="4"  y="10" width="2"  height="10"/><rect x="20" y="10" width="2"  height="10"/>
    <rect x="4"  y="20" width="18" height="2"/><rect x="2"  y="12" width="2"  height="6"/>
    <rect x="0"  y="14" width="2"  height="4"/><rect x="8"  y="8"  width="8"  height="2"/>
    <rect x="8"  y="8"  width="2"  height="2"/><rect x="14" y="8"  width="2"  height="2"/>
    <rect x="8"  y="18" width="4"  height="4"/>
  </g>
  <g fill="#4466AA">
    <rect x="4"  y="12" width="16" height="8"/><rect x="6"  y="10" width="14" height="2"/>
    <rect x="6"  y="20" width="14" height="2"/>
  </g>
  <g fill="#6688CC"><rect x="6" y="14" width="10" height="4"/></g>
  <g fill="#FFDD00">
    <rect x="24" y="6"  width="2"  height="18"/><rect x="26" y="4"  width="2"  height="22"/>
    <rect x="10" y="8"  width="4"  height="2"/>
  </g>
  <g fill="#FFAA00"><rect x="4" y="12" width="2" height="2"/></g>
</svg>