<svg xmlns="http://www.w3.org/2000/svg" viewBox="0 0 32 32" width="64" height="64" shape-rendering="crispEdges">
  <!-- 불새 (Fire Bird) — front-facing with spread wings -->
  <!-- Wing feather tips: bright flame -->
  <g fill="#FFAA00">
    <rect x="0"  y="6"  width="4"  height="2"/>
    <rect x="28" y="6"  width="4"  height="2"/>
    <rect x="0"  y="10" width="2"  height="2"/>
    <rect x="30" y="10" width="2"  height="2"/>
  </g>
  <!-- Wings: fire orange -->
  <g fill="#CC4411">
    <rect x="2"  y="4"  width="10" height="10"/>
    <rect x="20" y="4"  width="10" height="10"/>
    <!-- Wing fold detail -->
    <rect x="0"  y="6"  width="4"  height="6"/>
    <rect x="28" y="6"  width="4"  height="6"/>
  </g>
  <!-- Head and body: dark red -->
  <g fill="#AA3300">
    <rect x="12" y="2"  width="8"  height="8"/><!-- head -->
    <rect x="10" y="10" width="12" height="10"/><!-- body -->
    <rect x="12" y="20" width="8"  height="4"/><!-- tail top -->
  </g>
  <!-- Flame beak -->
  <g fill="#FFDD00">
    <rect x="14" y="8"  width="4"  height="4"/>
  </g>
  <!-- Eyes: bright amber -->
  <g fill="#FF8800">
    <rect x="12" y="4"  width="2"  height="2"/>
    <rect x="18" y="4"  width="2"  height="2"/>
  </g>
  <!-- Tail feathers: fan -->
  <g fill="#FF6600">
    <rect x="8"  y="22" width="4"  height="6"/>
    <rect x="14" y="24" width="4"  height="4"/>
    <rect x="20" y="22" width="4"  height="6"/>
  </g>
  <g fill="#FFAA00">
    <rect x="10" y="26" width="2"  height="2"/>
    <rect x="20" y="26" width="2"  height="2"/>
  </g>
  <!-- Talons -->
  <g fill="#882200">
    <rect x="10" y="20" width="4"  height="2"/>
    <rect x="18" y="20" width="4"  height="2"/>
    <rect x="10" y="22" width="2"  height="2"/>
    <rect x="20" y="22" width="2"  height="2"/>
  </g>
</svg>
