<svg xmlns="http://www.w3.org/2000/svg" viewBox="0 0 32 32" width="64" height="64" shape-rendering="crispEdges">
  <!-- 새 (Bird) -->
  <g fill="#111111">
    <rect x="10" y="4"  width="8"  height="2"/><rect x="8"  y="6"  width="2"  height="6"/>
    <rect x="18" y="6"  width="2"  height="6"/><rect x="10" y="12" width="8"  height="2"/>
    <rect x="12" y="12" width="4"  height="4"/><rect x="6"  y="14" width="2"  height="8"/>
    <rect x="20" y="14" width="2"  height="8"/><rect x="6"  y="14" width="16" height="2"/>
    <rect x="6"  y="22" width="16" height="2"/><rect x="4"  y="16" width="2"  height="6"/>
    <rect x="22" y="16" width="2"  height="6"/><rect x="10" y="22" width="4"  height="4"/>
    <rect x="14" y="22" width="4"  height="4"/><rect x="10" y="26" width="4"  height="2"/>
    <rect x="14" y="26" width="4"  height="2"/><rect x="8"  y="28" width="4"  height="2"/>
    <rect x="16" y="28" width="4"  height="2"/>
  </g>
  <g fill="#4499CC">
    <rect x="10" y="6"  width="8"  height="6"/><rect x="8"  y="14" width="12" height="8"/>
  </g>
  <g fill="#66BBEE">
    <rect x="6"  y="16" width="2"  height="4"/><rect x="22" y="16" width="2"  height="4"/>
    <rect x="12" y="22" width="2"  height="4"/><rect x="16" y="22" width="2"  height="2"/>
  </g>
  <g fill="#FFAA22"><rect x="13" y="13" width="2" height="2"/></g>
  <g fill="#111111"><rect x="10" y="8" width="2" height="2"/><rect x="16" y="8" width="2" height="2"/></g>
</svg>