<svg xmlns="http://www.w3.org/2000/svg" viewBox="0 0 32 32" width="64" height="64" shape-rendering="crispEdges">
  <!-- 독 벌레 (Poison Bug) -->
  <g fill="#111111">
    <rect x="10" y="0"  width="2"  height="6"/><rect x="16" y="0"  width="2"  height="6"/>
    <rect x="8"  y="0"  width="2"  height="2"/><rect x="18" y="0"  width="2"  height="2"/>
    <rect x="10" y="6"  width="8"  height="2"/><rect x="8"  y="8"  width="2"  height="4"/>
    <rect x="18" y="8"  width="2"  height="4"/><rect x="10" y="12" width="8"  height="2"/>
    <rect x="8"  y="12" width="10" height="2"/><rect x="6"  y="14" width="2"  height="4"/>
    <rect x="20" y="14" width="2"  height="4"/><rect x="8"  y="18" width="10" height="2"/>
    <rect x="6"  y="18" width="2"  height="6"/><rect x="20" y="18" width="2"  height="6"/>
    <rect x="8"  y="24" width="10" height="2"/><rect x="2"  y="14" width="4"  height="2"/>
    <rect x="2"  y="16" width="2"  height="2"/><rect x="22" y="14" width="4"  height="2"/>
    <rect x="24" y="16" width="2"  height="2"/><rect x="2"  y="18" width="4"  height="2"/>
    <rect x="22" y="18" width="4"  height="2"/><rect x="2"  y="20" width="4"  height="2"/>
    <rect x="22" y="20" width="4"  height="2"/>
  </g>
  <g fill="#662288"><rect x="10" y="8" width="8" height="4"/></g>
  <g fill="#8833BB">
    <rect x="8"  y="14" width="10" height="4"/><rect x="8"  y="20" width="10" height="4"/>
  </g>
  <g fill="#441166">
    <rect x="4"  y="14" width="2"  height="4"/><rect x="22" y="14" width="2"  height="4"/>
    <rect x="2"  y="18" width="4"  height="2"/><rect x="22" y="18" width="4"  height="2"/>
  </g>
  <g fill="#FFEE00"><rect x="10" y="8" width="2" height="2"/><rect x="16" y="8" width="2" height="2"/></g>
</svg>