<svg xmlns="http://www.w3.org/2000/svg" viewBox="0 0 32 32" width="64" height="64" shape-rendering="crispEdges">
  <!-- 사신 (Death Reaper) -->
  <g fill="#111111">
    <rect x="10" y="4"  width="6"  height="2"/><rect x="8"  y="6"  width="2"  height="2"/>
    <rect x="16" y="6"  width="2"  height="2"/><rect x="8"  y="6"  width="10" height="2"/>
    <rect x="6"  y="8"  width="2"  height="12"/><rect x="18" y="8"  width="2"  height="12"/>
    <rect x="4"  y="14" width="2"  height="8"/><rect x="20" y="14" width="2"  height="8"/>
    <rect x="6"  y="12" width="12" height="2"/><rect x="4"  y="22" width="4"  height="2"/>
    <rect x="10" y="22" width="6"  height="2"/><rect x="18" y="22" width="4"  height="2"/>
    <rect x="4"  y="24" width="2"  height="4"/><rect x="10" y="24" width="2"  height="4"/>
    <rect x="16" y="24" width="2"  height="4"/><rect x="20" y="24" width="2"  height="4"/>
    <rect x="6"  y="26" width="2"  height="2"/><rect x="12" y="26" width="2"  height="2"/>
    <rect x="18" y="26" width="2"  height="2"/>
  </g>
  <g fill="#222233">
    <rect x="8"  y="8"  width="10" height="14"/><rect x="6"  y="10" width="2"  height="10"/>
    <rect x="18" y="10" width="2"  height="10"/><rect x="10" y="6"  width="6"  height="2"/>
    <rect x="6"  y="20" width="14" height="2"/>
  </g>
  <g fill="#333355"><rect x="10" y="10" width="6" height="8"/></g>
  <g fill="#8822BB"><rect x="8" y="10" width="2" height="2"/><rect x="16" y="10" width="2" height="2"/></g>
</svg>