<svg xmlns="http://www.w3.org/2000/svg" viewBox="0 0 32 32" width="64" height="64" shape-rendering="crispEdges">
  <!-- 철 골렘 (Iron Golem) -->
  <g fill="#111111">
    <rect x="8"  y="2"  width="12" height="2"/><rect x="6"  y="4"  width="2"  height="8"/>
    <rect x="18" y="4"  width="2"  height="8"/><rect x="8"  y="12" width="12" height="2"/>
    <rect x="4"  y="12" width="2"  height="12"/><rect x="22" y="12" width="2"  height="12"/>
    <rect x="4"  y="12" width="20" height="2"/><rect x="4"  y="24" width="20" height="2"/>
    <rect x="0"  y="14" width="4"  height="10"/><rect x="24" y="14" width="4"  height="10"/>
    <rect x="6"  y="24" width="6"  height="6"/><rect x="16" y="24" width="6"  height="6"/>
  </g>
  <g fill="#556677">
    <rect x="8"  y="4"  width="12" height="8"/><rect x="6"  y="14" width="16" height="10"/>
    <rect x="2"  y="16" width="2"  height="6"/><rect x="24" y="16" width="2"  height="6"/>
  </g>
  <g fill="#7788AA">
    <rect x="10" y="6"  width="8"  height="4"/><rect x="8"  y="16" width="12" height="6"/>
  </g>
  <g fill="#CC2200"><rect x="8" y="6" width="2" height="2"/><rect x="14" y="6" width="2" height="2"/></g>
  <g fill="#556677"><rect x="8" y="26" width="4" height="2"/><rect x="18" y="26" width="4" height="2"/></g>
</svg>