<svg xmlns="http://www.w3.org/2000/svg" viewBox="0 0 32 32" width="64" height="64" shape-rendering="crispEdges">
  <!-- 마왕 (Demon Lord) -->
  <g fill="#111111">
    <rect x="8"  y="0"  width="2"  height="6"/><rect x="18" y="0"  width="2"  height="6"/>
    <rect x="6"  y="0"  width="4"  height="2"/><rect x="18" y="0"  width="4"  height="2"/>
    <rect x="8"  y="6"  width="12" height="2"/><rect x="8"  y="6"  width="2"  height="8"/>
    <rect x="18" y="6"  width="2"  height="8"/><rect x="8"  y="14" width="12" height="2"/>
    <rect x="8"  y="14" width="2"  height="10"/><rect x="18" y="14" width="2"  height="10"/>
    <rect x="10" y="14" width="8"  height="2"/><rect x="10" y="24" width="8"  height="2"/>
    <rect x="0"  y="14" width="8"  height="2"/><rect x="0"  y="14" width="2"  height="8"/>
    <rect x="2"  y="22" width="6"  height="2"/><rect x="22" y="14" width="8"  height="2"/>
    <rect x="28" y="14" width="2"  height="8"/><rect x="22" y="22" width="6"  height="2"/>
    <rect x="10" y="24" width="4"  height="6"/><rect x="16" y="24" width="4"  height="6"/>
    <rect x="16" y="22" width="2"  height="4"/><rect x="18" y="20" width="2"  height="2"/>
    <rect x="20" y="18" width="2"  height="4"/>
  </g>
  <g fill="#442266"><rect x="9" y="2" width="2" height="4"/><rect x="19" y="2" width="2" height="4"/></g>
  <g fill="#222233">
    <rect x="10" y="8"  width="8"  height="6"/><rect x="10" y="16" width="8"  height="8"/>
  </g>
  <g fill="#111122"><rect x="12" y="10" width="4" height="2"/></g>
  <g fill="#1A1A2A"><rect x="2" y="16" width="6" height="6"/><rect x="22" y="16" width="6" height="6"/></g>
  <g fill="#FF6600"><rect x="10" y="8" width="2" height="2"/><rect x="16" y="8" width="2" height="2"/></g>
  <g fill="#222233"><rect x="12" y="26" width="2" height="2"/><rect x="18" y="26" width="2" height="2"/></g>
</svg>