<svg xmlns="http://www.w3.org/2000/svg" viewBox="0 0 32 32" width="64" height="64" shape-rendering="crispEdges">
  <!-- 볼팡 (Thunder Wolf) — front-face portrait -->
  <!-- Lightning spark ears -->
  <g fill="#FFEE00">
    <rect x="8"  y="0"  width="2"  height="2"/>
    <rect x="22" y="0"  width="2"  height="2"/>
  </g>
  <g fill="#223388">
    <rect x="6"  y="0"  width="6"  height="4"/>
    <rect x="20" y="0"  width="6"  height="4"/>
    <rect x="4"  y="4"  width="24" height="2"/>
    <rect x="4"  y="14" width="24" height="2"/>
    <rect x="4"  y="6"  width="2"  height="8"/>
    <rect x="26" y="6"  width="2"  height="8"/>
    <rect x="14" y="12" width="4"  height="2"/>
  </g>
  <g fill="#AACCFF">
    <rect x="8"  y="0"  width="2"  height="4"/>
    <rect x="22" y="0"  width="2"  height="4"/>
  </g>
  <g fill="#4466CC">
    <rect x="6"  y="4"  width="20" height="10"/>
    <rect x="8"  y="16" width="16" height="6"/>
  </g>
  <g fill="#6688DD">
    <rect x="10" y="10" width="12" height="4"/>
  </g>
  <!-- Yellow lightning eyes -->
  <g fill="#FFEE00">
    <rect x="8"  y="8"  width="4"  height="4"/>
    <rect x="20" y="8"  width="4"  height="4"/>
  </g>
  <g fill="#AA9900">
    <rect x="10" y="10" width="2"  height="2"/>
    <rect x="22" y="10" width="2"  height="2"/>
  </g>
  <!-- Lightning bolt stripes on forehead -->
  <g fill="#FFEE00">
    <rect x="14" y="6"  width="4"  height="2"/>
    <rect x="12" y="4"  width="4"  height="2"/>
  </g>
</svg>
