<svg xmlns="http://www.w3.org/2000/svg" viewBox="0 0 32 32" width="64" height="64" shape-rendering="crispEdges">
  <!-- 붉은 쥐 (Red Rat) — reference style, 3/4 cute stance -->
  <g fill="#111111">
    <rect x="2"  y="0"  width="8"  height="2"/>
    <rect x="2"  y="2"  width="2"  height="6"/>
    <rect x="8"  y="2"  width="2"  height="6"/>
    <rect x="12" y="0"  width="8"  height="2"/>
    <rect x="12" y="2"  width="2"  height="6"/>
    <rect x="18" y="2"  width="2"  height="6"/>
    <rect x="2"  y="8"  width="18" height="2"/>
    <rect x="2"  y="8"  width="2"  height="10"/>
    <rect x="18" y="8"  width="2"  height="10"/>
    <rect x="2"  y="18" width="18" height="2"/>
    <rect x="0"  y="18" width="22" height="2"/>
    <rect x="0"  y="20" width="2"  height="8"/>
    <rect x="20" y="20" width="2"  height="8"/>
    <rect x="2"  y="26" width="4"  height="2"/>
    <rect x="8"  y="26" width="4"  height="2"/>
    <rect x="14" y="26" width="4"  height="2"/>
    <rect x="18" y="26" width="4"  height="2"/>
    <rect x="2"  y="28" width="4"  height="2"/>
    <rect x="8"  y="28" width="4"  height="2"/>
    <rect x="14" y="28" width="4"  height="2"/>
    <rect x="18" y="28" width="4"  height="2"/>
    <rect x="22" y="18" width="2"  height="4"/>
    <rect x="24" y="16" width="2"  height="4"/>
    <rect x="26" y="14" width="2"  height="4"/>
    <rect x="28" y="12" width="2"  height="4"/>
    <rect x="30" y="10" width="2"  height="4"/>
  </g>
  <!-- Ear: light orange -->
  <g fill="#E8A080">
    <rect x="4"  y="2"  width="4"  height="6"/>
    <rect x="14" y="2"  width="4"  height="6"/>
  </g>
  <!-- Body: orange-red -->
  <g fill="#CC5520">
    <rect x="4"  y="8"  width="14" height="10"/>
    <rect x="2"  y="20" width="18" height="6"/>
    <rect x="24" y="18" width="2"  height="2"/>
    <rect x="26" y="16" width="2"  height="2"/>
    <rect x="28" y="14" width="2"  height="2"/>
    <rect x="30" y="12" width="2"  height="2"/>
  </g>
  <!-- Belly -->
  <g fill="#EE8844">
    <rect x="6"  y="22" width="8"  height="4"/>
  </g>
  <g fill="#AA3300">
    <rect x="4"  y="26" width="2"  height="2"/>
    <rect x="10" y="26" width="2"  height="2"/>
    <rect x="16" y="26" width="2"  height="2"/>
    <rect x="20" y="26" width="2"  height="2"/>
  </g>
  <!-- Amber eyes -->
  <g fill="#FFAA00">
    <rect x="6"  y="12" width="2"  height="2"/>
    <rect x="14" y="12" width="2"  height="2"/>
  </g>
  <g fill="#FF8844">
    <rect x="10" y="14" width="4"  height="2"/>
  </g>
</svg>
