<svg xmlns="http://www.w3.org/2000/svg" viewBox="0 0 32 32" width="64" height="64" shape-rendering="crispEdges">
  <!-- 피의 박쥐 — blood bat variant -->
  <g fill="#550000">
    <rect x="0"  y="2"  width="2"  height="2"/>
    <rect x="30" y="2"  width="2"  height="2"/>
    <rect x="0"  y="4"  width="4"  height="2"/>
    <rect x="28" y="4"  width="4"  height="2"/>
    <rect x="2"  y="6"  width="4"  height="2"/>
    <rect x="26" y="6"  width="4"  height="2"/>
    <rect x="4"  y="8"  width="2"  height="2"/>
    <rect x="24" y="8"  width="2"  height="2"/>
  </g>
  <g fill="#BB2222">
    <rect x="6"  y="8"  width="2"  height="2"/>
    <rect x="22" y="8"  width="2"  height="2"/>
    <rect x="6"  y="10" width="4"  height="2"/>
    <rect x="20" y="10" width="4"  height="2"/>
  </g>
  <g fill="#881122">
    <rect x="10" y="10" width="10" height="2"/>
    <rect x="8"  y="12" width="4"  height="2"/>
    <rect x="14" y="12" width="4"  height="2"/>
    <rect x="20" y="12" width="4"  height="2"/>
    <rect x="8"  y="14" width="16" height="4"/>
    <rect x="10" y="18" width="12" height="2"/>
    <rect x="12" y="20" width="8"  height="2"/>
    <rect x="14" y="22" width="4"  height="2"/>
  </g>
  <g fill="#FF6600">
    <rect x="12" y="12" width="2" height="2"/>
    <rect x="18" y="12" width="2" height="2"/>
  </g>
</svg>
