<svg xmlns="http://www.w3.org/2000/svg" viewBox="0 0 32 32" width="64" height="64" shape-rendering="crispEdges">
  <!-- 붉은 슬라임 (Red Slime) — 16×16 pixel art -->
  <!-- Highlight -->
  <g fill="#FF9966">
    <rect x="10" y="2"  width="8"  height="2"/>
    <rect x="8"  y="4"  width="4"  height="2"/>
  </g>
  <!-- Body: red -->
  <g fill="#EE2222">
    <rect x="8"  y="2"  width="16" height="2"/>
    <rect x="6"  y="4"  width="20" height="4"/>
    <rect x="4"  y="8"  width="24" height="8"/>
    <rect x="6"  y="16" width="20" height="2"/>
    <rect x="8"  y="18" width="16" height="2"/>
    <rect x="10" y="20" width="12" height="2"/>
  </g>
  <g fill="#991111">
    <rect x="10" y="22" width="12" height="2"/>
    <rect x="6"  y="20" width="4"  height="2"/>
    <rect x="22" y="20" width="4"  height="2"/>
  </g>
  <!-- Yellow glowing eyes -->
  <g fill="#FFDD00">
    <rect x="8"  y="8"  width="4"  height="4"/>
    <rect x="20" y="8"  width="4"  height="4"/>
  </g>
  <g fill="#CC5500">
    <rect x="10" y="10" width="2"  height="2"/>
    <rect x="22" y="10" width="2"  height="2"/>
  </g>
  <!-- Angry brow -->
  <g fill="#991111">
    <rect x="8"  y="6"  width="4"  height="2"/>
    <rect x="20" y="6"  width="4"  height="2"/>
  </g>
</svg>
