<svg xmlns="http://www.w3.org/2000/svg" viewBox="0 0 32 32" width="64" height="64" shape-rendering="crispEdges">
  <!-- 암흑 기사 해골 (Dark) -->
  <g fill="#111111">
    <rect x="10" y="2"  width="8"  height="2"/><rect x="8"  y="4"  width="2"  height="8"/>
    <rect x="18" y="4"  width="2"  height="8"/><rect x="10" y="12" width="8"  height="2"/>
    <rect x="8"  y="10" width="4"  height="2"/><rect x="16" y="10" width="4"  height="2"/>
    <rect x="12" y="14" width="4"  height="10"/><rect x="6"  y="15" width="6"  height="2"/>
    <rect x="16" y="15" width="6"  height="2"/><rect x="6"  y="19" width="6"  height="2"/>
    <rect x="16" y="19" width="6"  height="2"/><rect x="4"  y="14" width="6"  height="2"/>
    <rect x="4"  y="14" width="2"  height="6"/><rect x="4"  y="20" width="4"  height="2"/>
    <rect x="2"  y="22" width="4"  height="2"/><rect x="20" y="14" width="6"  height="2"/>
    <rect x="24" y="14" width="2"  height="6"/><rect x="22" y="20" width="4"  height="2"/>
    <rect x="24" y="22" width="4"  height="2"/><rect x="10" y="24" width="4"  height="6"/>
    <rect x="16" y="24" width="4"  height="6"/><rect x="8"  y="28" width="4"  height="2"/>
    <rect x="18" y="28" width="4"  height="2"/>
  </g>
  <g fill="#DDCCBB">
    <rect x="10" y="4"  width="8"  height="6"/><rect x="8"  y="6"  width="2"  height="4"/>
    <rect x="18" y="6"  width="2"  height="4"/><rect x="12" y="15" width="2"  height="8"/>
    <rect x="12" y="24" width="2"  height="4"/><rect x="18" y="24" width="2"  height="4"/>
  </g>
  <g fill="#8822FF"><rect x="10" y="8" width="2" height="2"/><rect x="16" y="8" width="2" height="2"/></g>
  <g fill="#223344"><rect x="12" y="10" width="4" height="2"/></g>
</svg>