<svg xmlns="http://www.w3.org/2000/svg" viewBox="0 0 32 32" width="64" height="64" shape-rendering="crispEdges">
  <!-- 꽃 요정 (Flower) -->
  <g fill="#111111">
    <rect x="10" y="2"  width="8"  height="2"/><rect x="8"  y="4"  width="2"  height="2"/>
    <rect x="18" y="4"  width="2"  height="2"/><rect x="8"  y="6"  width="12" height="2"/>
    <rect x="8"  y="6"  width="2"  height="8"/><rect x="18" y="6"  width="2"  height="8"/>
    <rect x="8"  y="14" width="12" height="2"/><rect x="10" y="14" width="2"  height="8"/>
    <rect x="16" y="14" width="2"  height="8"/><rect x="10" y="14" width="8"  height="2"/>
    <rect x="10" y="22" width="8"  height="2"/><rect x="0"  y="10" width="8"  height="2"/>
    <rect x="0"  y="10" width="2"  height="6"/><rect x="2"  y="16" width="8"  height="2"/>
    <rect x="22" y="10" width="8"  height="2"/><rect x="28" y="10" width="2"  height="6"/>
    <rect x="22" y="16" width="8"  height="2"/><rect x="8"  y="22" width="2"  height="4"/>
    <rect x="18" y="22" width="2"  height="4"/><rect x="8"  y="26" width="12" height="2"/>
    <rect x="10" y="28" width="4"  height="2"/><rect x="14" y="28" width="4"  height="2"/>
  </g>
  <g fill="#FFEE44">
    <rect x="10" y="4"  width="8"  height="2"/><rect x="8"  y="6"  width="2"  height="2"/>
    <rect x="18" y="6"  width="2"  height="2"/>
  </g>
  <g fill="#FF88AA">
    <rect x="10" y="8"  width="8"  height="6"/><rect x="12" y="16" width="4"  height="6"/>
  </g>
  <g fill="#FFAACC"><rect x="2" y="12" width="6" height="4"/><rect x="22" y="12" width="6" height="4"/></g>
  <g fill="#FFCCDD"><rect x="10" y="24" width="8" height="2"/></g>
  <g fill="#33CC33"><rect x="10" y="10" width="2" height="2"/><rect x="16" y="10" width="2" height="2"/></g>
  <g fill="#FF88AA"><rect x="12" y="12" width="4" height="2"/></g>
</svg>