<svg xmlns="http://www.w3.org/2000/svg" viewBox="0 0 32 32" width="64" height="64" shape-rendering="crispEdges">
  <!-- 서리 요정 (Frost Fairy) — winged humanoid, icy -->
  <!-- Ice wings: light blue -->
  <g fill="#5599BB">
    <rect x="0"  y="4"  width="10" height="2"/>
    <rect x="0"  y="6"  width="12" height="2"/>
    <rect x="0"  y="8"  width="10" height="2"/>
    <rect x="2"  y="10" width="8"  height="2"/>
    <rect x="22" y="4"  width="10" height="2"/>
    <rect x="20" y="6"  width="12" height="2"/>
    <rect x="22" y="8"  width="10" height="2"/>
    <rect x="22" y="10" width="8"  height="2"/>
    <rect x="2"  y="12" width="8"  height="4"/>
    <rect x="22" y="12" width="8"  height="4"/>
  </g>
  <!-- Wing frost shimmer -->
  <g fill="#AADDFF">
    <rect x="2"  y="6"  width="4"  height="4"/>
    <rect x="26" y="6"  width="4"  height="4"/>
    <rect x="0"  y="4"  width="2"  height="2"/>
    <rect x="30" y="4"  width="2"  height="2"/>
  </g>
  <!-- Ice crystal hands -->
  <g fill="#FFFFFF">
    <rect x="8"  y="14" width="4"  height="2"/>
    <rect x="20" y="14" width="4"  height="2"/>
  </g>
  <!-- Hair: silver-white -->
  <g fill="#AACCDD">
    <rect x="12" y="0"  width="8"  height="4"/>
    <rect x="10" y="2"  width="2"  height="4"/>
    <rect x="20" y="2"  width="2"  height="4"/>
  </g>
  <!-- Head: pale ice skin -->
  <g fill="#CCE8FF">
    <rect x="12" y="2"  width="8"  height="8"/>
  </g>
  <!-- Eyes: bright white -->
  <g fill="#FFFFFF">
    <rect x="12" y="4"  width="2"  height="2"/>
    <rect x="18" y="4"  width="2"  height="2"/>
  </g>
  <g fill="#5599BB">
    <rect x="12" y="4"  width="2"  height="2"/>
    <rect x="18" y="4"  width="2"  height="2"/>
  </g>
  <!-- Body: ice-blue dress -->
  <g fill="#88BBDD">
    <rect x="12" y="10" width="8"  height="8"/>
  </g>
  <g fill="#5599BB">
    <rect x="12" y="14" width="8"  height="2"/>
  </g>
  <!-- Frost crystal accents -->
  <g fill="#FFFFFF">
    <rect x="10" y="12" width="2"  height="2"/>
    <rect x="20" y="12" width="2"  height="2"/>
  </g>
  <!-- Legs -->
  <g fill="#6699AA">
    <rect x="12" y="18" width="4"  height="8"/>
    <rect x="16" y="18" width="4"  height="8"/>
  </g>
  <g fill="#446688">
    <rect x="10" y="24" width="4"  height="2"/>
    <rect x="18" y="24" width="4"  height="2"/>
  </g>
</svg>
