<svg xmlns="http://www.w3.org/2000/svg" viewBox="0 0 32 32" width="64" height="64" shape-rendering="crispEdges">
  <!-- 이그니스 (Ignis) — fire blob -->
  <g fill="#DD2200">
    <rect x="12" y="0"  width="4"  height="2"/><rect x="10" y="2"  width="2"  height="2"/>
    <rect x="16" y="2"  width="2"  height="2"/><rect x="8"  y="4"  width="2"  height="2"/>
    <rect x="18" y="4"  width="2"  height="2"/><rect x="6"  y="6"  width="2"  height="2"/>
    <rect x="20" y="6"  width="2"  height="2"/><rect x="4"  y="8"  width="16" height="2"/>
    <rect x="4"  y="8"  width="2"  height="12"/><rect x="18" y="8"  width="2"  height="12"/>
    <rect x="4"  y="20" width="16" height="2"/><rect x="2"  y="20" width="2"  height="6"/>
    <rect x="20" y="20" width="2"  height="6"/><rect x="4"  y="24" width="4"  height="2"/>
    <rect x="14" y="24" width="4"  height="2"/><rect x="4"  y="26" width="4"  height="2"/>
    <rect x="14" y="26" width="4"  height="2"/>
  </g>
  <g fill="#FF6600">
    <rect x="6"  y="8"  width="12" height="12"/><rect x="12" y="2"  width="4"  height="2"/>
    <rect x="10" y="4"  width="2"  height="2"/><rect x="16" y="4"  width="2"  height="2"/>
    <rect x="8"  y="6"  width="2"  height="2"/><rect x="18" y="6"  width="2"  height="2"/>
    <rect x="4"  y="22" width="16" height="2"/>
  </g>
  <g fill="#FFEE00">
    <rect x="8"  y="10" width="8"  height="6"/><rect x="12" y="4"  width="2"  height="2"/>
    <rect x="10" y="6"  width="2"  height="2"/><rect x="16" y="6"  width="2"  height="2"/>
  </g>
  <g fill="#FFAA00">
    <rect x="8"  y="12" width="2"  height="2"/><rect x="14" y="12" width="2"  height="2"/>
  </g>
</svg>